<svg width="52" height="53" viewBox="0 0 52 53" fill="none" xmlns="http://www.w3.org/2000/svg">
<g clip-path="url(#clip0_41_189)">
<path d="M26.1523 0.389648C22.5638 0.389648 19.1784 1.06673 15.9961 2.4209C12.8477 3.77507 10.097 5.62858 7.74414 7.98145C5.39128 10.3343 3.53776 13.1019 2.18359 16.2842C0.829427 19.4326 0.152344 22.8011 0.152344 26.3896C0.152344 29.9782 0.829427 33.3467 2.18359 36.4951C3.53776 39.6774 5.39128 42.445 7.74414 44.7979C10.097 47.1507 12.8477 49.0042 15.9961 50.3584C19.1784 51.7126 22.5638 52.3896 26.1523 52.3896C29.7409 52.3896 33.1094 51.7126 36.2578 50.3584C39.4062 49.0042 42.1569 47.1507 44.5098 44.7979C46.8626 42.445 48.7161 39.6774 50.0703 36.4951C51.4583 33.3467 52.1523 29.9782 52.1523 26.3896C52.1523 22.8011 51.4583 19.4326 50.0703 16.2842C48.7161 13.1019 46.8626 10.3343 44.5098 7.98145C42.1569 5.62858 39.4062 3.77507 36.2578 2.4209C33.1094 1.06673 29.7409 0.389648 26.1523 0.389648ZM38.1875 19.1787L25.7461 38.2217C25.7461 38.2217 25.7376 38.2217 25.7207 38.2217C25.7038 38.2217 25.6953 38.2217 25.6953 38.2217C25.6615 38.2894 25.6361 38.3486 25.6191 38.3994C25.6022 38.4502 25.5768 38.4925 25.543 38.5264C25.4753 38.5941 25.4076 38.6449 25.3398 38.6787C25.2721 38.7126 25.2044 38.7633 25.1367 38.8311C25.1367 38.8311 25.1283 38.8395 25.1113 38.8564C25.0944 38.8734 25.069 38.8818 25.0352 38.8818C24.9336 38.9495 24.832 39.0088 24.7305 39.0596C24.6289 39.1104 24.5273 39.1527 24.4258 39.1865C24.3919 39.1865 24.3496 39.1865 24.2988 39.1865C24.248 39.1865 24.2057 39.2035 24.1719 39.2373C24.1042 39.2373 24.0195 39.2373 23.918 39.2373C23.8164 39.2373 23.7318 39.2373 23.6641 39.2373C23.5964 39.2373 23.5286 39.2288 23.4609 39.2119C23.3932 39.195 23.3255 39.1865 23.2578 39.1865C23.1901 39.1527 23.1309 39.1188 23.0801 39.085C23.0293 39.0511 22.9701 39.0342 22.9023 39.0342C22.8346 39.0003 22.7754 38.9749 22.7246 38.958C22.6738 38.9411 22.6315 38.9157 22.5977 38.8818C22.5299 38.848 22.4876 38.8226 22.4707 38.8057C22.4538 38.7887 22.4284 38.7633 22.3945 38.7295C22.3945 38.6956 22.3861 38.6787 22.3691 38.6787C22.3522 38.6787 22.3268 38.6787 22.293 38.6787L15.082 31.9756C14.6081 31.5355 14.3626 31.0023 14.3457 30.376C14.3288 29.7497 14.5234 29.1995 14.9297 28.7256C15.3698 28.2855 15.903 28.0485 16.5293 28.0146C17.1556 27.9808 17.7057 28.1839 18.1797 28.624L23.4102 33.499L34.3789 16.6904C34.7174 16.1826 35.1914 15.861 35.8008 15.7256C36.4102 15.5902 36.9857 15.6917 37.5273 16.0303C38.0352 16.4027 38.3568 16.8936 38.4922 17.5029C38.6276 18.1123 38.526 18.6709 38.1875 19.1787Z" fill="#003486"/>
</g>
<defs>
<clipPath id="clip0_41_189">
<rect width="52" height="52" fill="white" transform="matrix(1 0 0 -1 0 52.3896)"/>
</clipPath>
</defs>
</svg>
