<svg width="84" height="85" viewBox="0 0 84 85" fill="none" xmlns="http://www.w3.org/2000/svg">
<g clip-path="url(#clip0_143_4457)">
<path d="M41.9941 0.838135C36.2439 0.838135 30.8192 1.92308 25.72 4.09297C20.675 6.26286 16.2674 9.23289 12.4972 13.0031C8.72703 16.7733 5.757 21.208 3.58711 26.3072C1.41722 31.3522 0.332275 36.7498 0.332275 42.5C0.332275 48.2502 1.41722 53.6478 3.58711 58.6928C5.757 63.792 8.72703 68.2267 12.4972 71.9969C16.2674 75.7671 20.675 78.7371 25.72 80.907C30.8192 83.0769 36.2439 84.1619 41.9941 84.1619C47.7443 84.1619 53.1419 83.0769 58.1869 80.907C63.2319 78.7371 67.6395 75.7671 71.4097 71.9969C75.1799 68.2267 78.1499 63.792 80.3198 58.6928C82.5439 53.6478 83.656 48.2502 83.656 42.5C83.656 36.7498 82.5439 31.3522 80.3198 26.3072C78.1499 21.208 75.1799 16.7733 71.4097 13.0031C67.6395 9.23289 63.2319 6.26286 58.1869 4.09297C53.1419 1.92308 47.7443 0.838135 41.9941 0.838135ZM61.279 30.9453L41.3432 61.4594C41.3432 61.4594 41.3296 61.4594 41.3025 61.4594C41.2754 61.4594 41.2618 61.4594 41.2618 61.4594C41.2076 61.5679 41.1669 61.6628 41.1397 61.7442C41.1126 61.8256 41.0719 61.8934 41.0177 61.9476C40.9092 62.0561 40.8007 62.1375 40.6922 62.1917C40.5837 62.246 40.4752 62.3274 40.3667 62.4359C40.3667 62.4359 40.3532 62.4494 40.326 62.4765C40.2989 62.5037 40.2582 62.5172 40.204 62.5172C40.0412 62.6257 39.8785 62.7207 39.7158 62.802C39.553 62.8834 39.3903 62.9512 39.2275 63.0054C39.1733 63.0054 39.1055 63.0054 39.0241 63.0054C38.9427 63.0054 38.8749 63.0326 38.8207 63.0868C38.7122 63.0868 38.5766 63.0868 38.4138 63.0868C38.2511 63.0868 38.1155 63.0868 38.007 63.0868C37.8985 63.0868 37.79 63.0733 37.6815 63.0461C37.573 63.019 37.4645 63.0054 37.356 63.0054C37.2475 62.9512 37.1526 62.897 37.0712 62.8427C36.9898 62.7885 36.8949 62.7613 36.7864 62.7613C36.6779 62.7071 36.583 62.6664 36.5016 62.6393C36.4202 62.6122 36.3524 62.5715 36.2982 62.5172C36.1897 62.463 36.1219 62.4223 36.0948 62.3952C36.0676 62.368 36.0269 62.3274 35.9727 62.2731C35.9727 62.2189 35.9591 62.1917 35.932 62.1917C35.9049 62.1917 35.8642 62.1917 35.81 62.1917L24.2553 51.4508C23.4958 50.7456 23.1025 49.8912 23.0754 48.8876C23.0483 47.884 23.3602 47.0025 24.0112 46.2431C24.7164 45.5378 25.5708 45.1581 26.5744 45.1039C27.5779 45.0496 28.4595 45.3751 29.2189 46.0803L37.6001 53.8919L55.1762 26.9582C55.7187 26.1445 56.4781 25.6291 57.4546 25.4121C58.431 25.1951 59.3533 25.3579 60.2212 25.9004C61.0349 26.4971 61.5503 27.2837 61.7673 28.2601C61.9842 29.2366 61.8215 30.1316 61.279 30.9453Z" fill="white"/>
</g>
<defs>
<clipPath id="clip0_143_4457">
<rect width="83.3237" height="83.3237" fill="white" transform="matrix(1 0 0 -1 0.0881348 84.1619)"/>
</clipPath>
</defs>
</svg>
