<svg width="31" height="50" viewBox="0 0 31 50" fill="none" xmlns="http://www.w3.org/2000/svg">
<path d="M21.0512 22.7633C26.6218 24.3961 30.0795 30.4469 27.9665 36.4017C26.5258 40.6277 22.2998 43.2209 17.8818 43.317V47.9271C17.8818 48.7915 17.1134 49.4638 16.345 49.4638H13.2716C12.4072 49.4638 11.7349 48.7915 11.7349 47.9271V43.317C8.66144 43.317 5.7801 42.3565 3.37897 40.4356C2.61061 39.8593 2.51457 38.8028 3.18688 38.1305L6.54846 34.865C7.02868 34.3848 7.79704 34.2887 8.46935 34.6729C9.4298 35.3452 10.5823 35.6334 11.7349 35.6334H18.0738C19.6106 35.6334 20.9552 34.3848 20.9552 32.8481C20.9552 31.5995 20.0908 30.4469 18.8422 30.1588L9.04562 27.2775C4.7236 26.0289 1.36203 22.3792 0.977851 17.9611C0.401581 11.7182 5.29987 6.43571 11.4467 6.43571H11.7349V1.82555C11.7349 1.05719 12.4072 0.288831 13.2716 0.288831H16.345C17.1134 0.288831 17.8818 1.05719 17.8818 1.82555V6.43571C20.8591 6.53175 23.8365 7.4922 26.1416 9.31705C26.91 9.98937 27.006 11.0459 26.3337 11.7182L22.9721 14.9837C22.4919 15.4639 21.7236 15.56 21.1473 15.1758C20.1868 14.5035 19.0343 14.1193 17.7857 14.1193H11.4467C9.91003 14.1193 8.66144 15.4639 8.66144 17.0006C8.66144 18.2492 9.4298 19.4018 10.6784 19.6899L21.0512 22.7633Z" fill="white"/>
</svg>
