<svg width="59" height="54" viewBox="0 0 59 54" fill="none" xmlns="http://www.w3.org/2000/svg">
<path d="M27.9297 27.3818L16.8594 15.8037C13.6094 12.4521 13.8125 6.86621 17.4688 3.71777C20.5156 0.975586 25.1875 1.4834 28.0312 4.53027L29.25 5.64746L30.3672 4.53027C33.2109 1.4834 37.8828 0.975586 41.0312 3.71777C44.5859 6.86621 44.7891 12.4521 41.5391 15.8037L30.4688 27.3818C29.7578 28.0928 28.6406 28.0928 27.9297 27.3818ZM57.3828 35.3037C58.9062 36.624 58.8047 38.96 57.2812 40.1787L41.8438 52.4678C40.7266 53.4834 39.3047 53.8896 37.7812 53.8896H1.625C0.710938 53.8896 0 53.1787 0 52.2646V42.5146C0 41.7021 0.710938 40.8896 1.625 40.8896H7.21094L11.8828 37.1318C14.0156 35.4053 16.7578 34.3896 19.5 34.3896H35.75C37.6797 34.3896 39.2031 36.2178 38.8984 38.249C38.6953 39.874 37.1719 40.8896 35.5469 40.8896H27.625C26.7109 40.8896 26 41.7021 26 42.5146C26 43.4287 26.7109 44.1396 27.625 44.1396H39.6094C41.0312 44.1396 42.5547 43.7334 43.6719 42.7178L53.0156 35.3037C54.3359 34.2881 56.1641 34.1865 57.3828 35.3037Z" fill="#003486"/>
</svg>
