<svg width="85" height="74" viewBox="0 0 85 74" fill="none" xmlns="http://www.w3.org/2000/svg">
<path d="M84.917 25.4915C84.8617 22.2265 84.2253 19.0999 83.0078 16.1116C81.735 13.1233 80.0195 10.4947 77.8613 8.22583C75.7031 5.95695 73.1852 4.15845 70.3076 2.83032C67.43 1.5022 64.3587 0.838135 61.0938 0.838135C57.3307 0.838135 53.8444 1.73739 50.6348 3.53589C47.4251 5.33439 44.7135 7.67245 42.5 10.55C40.2865 7.67245 37.5749 5.33439 34.3652 3.53589C31.1556 1.73739 27.6693 0.838135 23.9062 0.838135C20.6413 0.838135 17.57 1.5022 14.6924 2.83032C11.8148 4.15845 9.29688 5.95695 7.13867 8.22583C4.98047 10.4947 3.26497 13.1233 1.99219 16.1116C0.77474 19.0999 0.138346 22.2265 0.0830078 25.4915H0C0 25.4915 0 25.5191 0 25.5745C0 25.6298 0 25.6851 0 25.7405C0 25.7405 0 25.7543 0 25.782C0 25.8097 0 25.8512 0 25.9065C0 26.0725 0.0138346 26.2247 0.0415039 26.363C0.0691732 26.5014 0.0830078 26.6812 0.0830078 26.9026C0.415039 35.2034 2.76693 42.3144 7.13867 48.2356C11.5658 54.1568 16.3802 58.9989 21.582 62.762C26.7839 66.525 31.5153 69.2919 35.7764 71.0627C40.0374 72.8336 42.168 73.719 42.168 73.719C42.168 73.719 44.3262 72.8336 48.6426 71.0627C53.0143 69.2919 57.8288 66.525 63.0859 62.762C68.3431 58.9989 73.2129 54.1568 77.6953 48.2356C82.1777 42.3144 84.585 35.2034 84.917 26.9026C84.917 26.7366 84.9308 26.5706 84.9585 26.4045C84.9862 26.2385 85 26.0725 85 25.9065C85 25.8512 85 25.8097 85 25.782C85 25.7543 85 25.7405 85 25.7405C85 25.6851 85 25.6298 85 25.5745C85 25.5191 85 25.4915 85 25.4915H84.917Z" fill="#7e1618"/>
</svg>
