<svg width="97" height="86" viewBox="0 0 97 86" fill="none" xmlns="http://www.w3.org/2000/svg">
<path d="M45.8347 24.5354C41.8503 23.3733 38.53 20.385 38.032 16.5667C37.3679 11.2542 41.5183 6.77173 46.9968 6.10767V3.11938C46.9968 1.79126 48.1589 0.463135 49.8191 0.463135H52.6414C54.3015 0.463135 55.6296 1.79126 55.6296 3.11938V6.10767C57.6218 6.4397 59.614 7.10376 61.2742 8.09985C61.7722 8.43188 62.2703 8.92993 62.2703 9.76001C62.2703 10.092 62.1042 10.4241 61.9382 10.5901C61.7722 10.7561 61.7722 10.9221 61.6062 11.0881L58.4519 14.0764C57.7878 14.5745 56.7917 14.7405 55.9617 14.4084C55.2976 14.0764 54.6335 13.9104 53.9695 13.9104H48.1589C47.3289 13.9104 46.6648 14.5745 46.6648 15.4045C46.6648 16.0686 46.9968 16.5667 47.6609 16.7327L56.6257 19.0569C60.7761 20.219 63.9304 23.2073 64.4285 27.0256C65.0925 32.3381 60.9421 36.8206 55.6296 37.4846V40.3069C55.6296 41.801 54.3015 42.9631 52.6414 42.9631H49.8191C48.1589 42.9631 46.8308 41.801 46.8308 40.3069V37.4846C44.8386 37.3186 42.8464 36.4885 41.1863 35.4924C40.6882 35.1604 40.1902 34.6624 40.1902 33.8323C40.1902 33.5002 40.3562 33.1682 40.5222 33.0022C40.6882 32.8362 40.6882 32.6702 40.8542 32.5042L44.0085 29.5159C44.6726 29.0178 45.6687 28.8518 46.6648 29.1838C47.1628 29.5159 47.8269 29.6819 48.491 29.6819H54.3015C55.1316 29.6819 55.7957 29.0178 55.7957 28.1877C55.7957 27.5237 55.4636 27.0256 54.7996 26.8596L45.8347 24.5354ZM94.6433 55.0823C95.6394 55.9124 96.4695 57.4065 96.4695 58.9006C96.4695 60.7268 95.6394 62.2209 94.4773 63.051L69.2429 83.1389C67.4167 84.6331 65.0925 85.4631 62.6023 85.4631H3.50073C2.00659 85.4631 0.844482 84.301 0.844482 82.8069V66.8694C0.844482 65.5413 2.00659 64.2131 3.50073 64.2131H12.6316L20.2683 58.0706C23.7546 55.2483 27.905 53.7542 32.7195 53.5881H59.282C62.1042 53.5881 64.4285 56.0784 64.5945 58.9006C64.5945 58.9006 64.5945 58.9006 64.5945 59.0667C64.5945 59.2327 64.4285 59.5647 64.4285 59.8967C64.0964 62.553 61.6062 64.2131 58.95 64.2131H46.0007C44.5066 64.2131 43.3445 65.5413 43.3445 66.8694C43.3445 68.3635 44.5066 69.5256 46.0007 69.5256H65.5906C68.0808 69.5256 70.405 68.6956 72.2312 67.2014L87.5046 55.0823C89.6628 53.4221 92.6511 53.2561 94.6433 55.0823Z" fill="#7e1618"/>
</svg>
