<svg width="108" height="88" viewBox="0 0 108 88" fill="none" xmlns="http://www.w3.org/2000/svg">
<path d="M81.8751 33.3381C84.0333 33.3381 85.8594 35.1643 85.8594 37.3225V45.2913C85.8594 47.6155 84.0333 49.2756 81.8751 49.2756H80.5469V59.9006C80.5469 62.8889 78.0567 65.2131 75.2344 65.2131H72.5782C72.5782 71.1897 67.7637 75.8381 61.9532 75.8381H39.209L22.1094 85.7991C19.4532 87.2932 16.2989 86.4631 14.8047 83.8069L1.5235 60.8967C0.0293579 58.4065 0.859436 55.0862 3.51569 53.592L16.7969 45.9553V38.1526C16.7969 34.3342 18.6231 30.8479 21.9434 29.0217L32.7344 22.5471V42.635C32.7344 49.2756 38.0469 54.5881 44.6876 54.5881C51.1622 54.5881 56.6407 49.2756 56.6407 42.635V33.3381H81.8751ZM106.279 27.1956C107.773 29.6858 106.943 33.0061 104.453 34.5002L91.1719 42.137V37.3225C91.1719 32.342 86.8555 28.0256 81.8751 28.0256H51.3282V42.635C51.3282 46.4534 48.3399 49.2756 44.6876 49.2756C40.8692 49.2756 38.0469 46.4534 38.0469 42.635V21.717C38.0469 19.8909 38.877 18.2307 40.5372 17.2346L46.0157 13.7483C47.6758 12.7522 49.668 12.0881 51.6602 12.0881H68.5938L85.8594 2.29321C88.3497 0.799072 91.504 1.62915 92.9981 4.11938L106.279 27.1956Z" fill="#7e1618"/>
</svg>
