<svg width="59" height="53" viewBox="0 0 59 53" fill="none" xmlns="http://www.w3.org/2000/svg">
<path d="M27.5234 15.6162C25.0859 14.9053 23.0547 13.0771 22.75 10.7412C22.3438 7.49121 24.8828 4.74902 28.2344 4.34277V2.51465C28.2344 1.70215 28.9453 0.889648 29.9609 0.889648H31.6875C32.7031 0.889648 33.5156 1.70215 33.5156 2.51465V4.34277C34.7344 4.5459 35.9531 4.95215 36.9688 5.56152C37.2734 5.76465 37.5781 6.06934 37.5781 6.57715C37.5781 6.78027 37.4766 6.9834 37.375 7.08496C37.2734 7.18652 37.2734 7.28809 37.1719 7.38965L35.2422 9.21777C34.8359 9.52246 34.2266 9.62402 33.7188 9.4209C33.3125 9.21777 32.9062 9.11621 32.5 9.11621H28.9453C28.4375 9.11621 28.0312 9.52246 28.0312 10.0303C28.0312 10.4365 28.2344 10.7412 28.6406 10.8428L34.125 12.2646C36.6641 12.9756 38.5938 14.8037 38.8984 17.1396C39.3047 20.3896 36.7656 23.1318 33.5156 23.5381V25.2646C33.5156 26.1787 32.7031 26.8896 31.6875 26.8896H29.9609C28.9453 26.8896 28.1328 26.1787 28.1328 25.2646V23.5381C26.9141 23.4365 25.6953 22.9287 24.6797 22.3193C24.375 22.1162 24.0703 21.8115 24.0703 21.3037C24.0703 21.1006 24.1719 20.8975 24.2734 20.7959C24.375 20.6943 24.375 20.5928 24.4766 20.4912L26.4062 18.6631C26.8125 18.3584 27.4219 18.2568 28.0312 18.46C28.3359 18.6631 28.7422 18.7646 29.1484 18.7646H32.7031C33.2109 18.7646 33.6172 18.3584 33.6172 17.8506C33.6172 17.4443 33.4141 17.1396 33.0078 17.0381L27.5234 15.6162ZM57.3828 34.3037C57.9922 34.8115 58.5 35.7256 58.5 36.6396C58.5 37.7568 57.9922 38.6709 57.2812 39.1787L41.8438 51.4678C40.7266 52.3818 39.3047 52.8896 37.7812 52.8896H1.625C0.710938 52.8896 0 52.1787 0 51.2646V41.5146C0 40.7021 0.710938 39.8896 1.625 39.8896H7.21094L11.8828 36.1318C14.0156 34.4053 16.5547 33.4912 19.5 33.3896H35.75C37.4766 33.3896 38.8984 34.9131 39 36.6396C39 36.6396 39 36.6396 39 36.7412C39 36.8428 38.8984 37.0459 38.8984 37.249C38.6953 38.874 37.1719 39.8896 35.5469 39.8896H27.625C26.7109 39.8896 26 40.7021 26 41.5146C26 42.4287 26.7109 43.1396 27.625 43.1396H39.6094C41.1328 43.1396 42.5547 42.6318 43.6719 41.7178L53.0156 34.3037C54.3359 33.2881 56.1641 33.1865 57.3828 34.3037Z" fill="#003486"/>
</svg>
