<svg width="30" height="30" viewBox="0 0 30 30" fill="none" xmlns="http://www.w3.org/2000/svg">
<path d="M24.8941 13.5964H27.3197C27.3197 7.37484 22.6226 2.68262 16.3926 2.68262V5.10816C21.3189 5.10816 24.8941 8.67735 24.8941 13.5964Z" fill="white"/>
<path d="M16.4048 9.95925C18.9553 9.95925 20.0431 11.0471 20.0431 13.5976H22.4687C22.4687 9.68637 20.316 7.5337 16.4048 7.5337V9.95925ZM20.5549 16.5604C20.3219 16.3486 20.0157 16.2356 19.7009 16.2453C19.3861 16.2551 19.0875 16.3867 18.868 16.6125L15.9658 19.5972C15.2672 19.4638 13.8628 19.0259 12.4172 17.584C10.9716 16.1371 10.5338 14.7291 10.404 14.0354L13.3862 11.132C13.6123 10.9126 13.7442 10.6139 13.7539 10.2991C13.7636 9.98422 13.6505 9.67793 13.4384 9.44503L8.95717 4.51753C8.74498 4.2839 8.45008 4.14219 8.13509 4.12248C7.8201 4.10278 7.50984 4.20665 7.2702 4.41202L4.63848 6.66899C4.42881 6.87943 4.30366 7.1595 4.28678 7.45608C4.26859 7.75928 3.92173 14.9413 9.49079 20.5128C14.3492 25.37 20.4349 25.7253 22.1109 25.7253C22.3559 25.7253 22.5063 25.718 22.5463 25.7156C22.8428 25.699 23.1228 25.5733 23.3322 25.3627L25.5879 22.7298C25.7935 22.4903 25.8975 22.1801 25.8781 21.8651C25.8586 21.5501 25.7171 21.2551 25.4836 21.0428L20.5549 16.5604Z" fill="white"/>
</svg>
