<svg width="83" height="83" viewBox="0 0 83 83" fill="none" xmlns="http://www.w3.org/2000/svg">
<path d="M41.6717 0.467529C64.4159 0.467529 82.8436 18.8953 82.8436 41.6394C82.8436 64.3835 64.4159 82.8113 41.6717 82.8113C18.9276 82.8113 0.499863 64.3835 0.499863 41.6394C0.499863 18.8953 18.9276 0.467529 41.6717 0.467529ZM41.6717 16.405C33.537 16.405 27.0624 23.0457 27.0624 31.0144C27.0624 39.1492 33.537 45.6238 41.6717 45.6238C49.6405 45.6238 56.2811 39.1492 56.2811 31.0144C56.2811 23.0457 49.6405 16.405 41.6717 16.405ZM41.6717 73.5144C51.3006 73.5144 60.0995 69.198 65.91 62.2253C62.7557 56.4148 56.6131 52.2644 49.6405 52.2644C49.1424 52.2644 48.8104 52.4304 48.3124 52.5964C46.3202 53.2605 43.996 53.5925 41.6717 53.5925C39.1815 53.5925 37.0233 53.2605 34.8651 52.5964C34.3671 52.4304 34.035 52.2644 33.703 52.2644C26.5643 52.2644 20.4217 56.4148 17.2674 62.2253C23.078 69.198 31.8768 73.5144 41.6717 73.5144Z" fill="#292F6C"/>
</svg>
