<svg width="13" height="13" viewBox="0 0 13 13" fill="none" xmlns="http://www.w3.org/2000/svg">
<g clip-path="url(#clip0_1588_108)">
<path fill-rule="evenodd" clip-rule="evenodd" d="M9.27529 7.77214L12.5202 11.0171C12.6343 11.1312 12.6983 11.286 12.6983 11.4473C12.6982 11.6087 12.634 11.7634 12.5199 11.8775C12.4058 11.9915 12.251 12.0556 12.0897 12.0555C11.9283 12.0554 11.7736 11.9913 11.6595 11.8772L8.4146 8.63223C7.44456 9.38356 6.22474 9.73712 5.00328 9.621C3.78182 9.50488 2.65047 8.92779 1.83939 8.00713C1.0283 7.08648 0.598417 5.89142 0.637176 4.66506C0.675935 3.4387 1.18043 2.27317 2.04803 1.40557C2.91563 0.537973 4.08116 0.033479 5.30752 -0.00528006C6.53387 -0.0440391 7.72894 0.385849 8.64959 1.19693C9.57024 2.00801 10.1473 3.13936 10.2635 4.36082C10.3796 5.58228 10.026 6.80211 9.27468 7.77214H9.27529ZM5.46039 8.43621C6.42017 8.43621 7.34065 8.05493 8.01932 7.37626C8.69799 6.69759 9.07927 5.77711 9.07927 4.81733C9.07927 3.85754 8.69799 2.93707 8.01932 2.25839C7.34065 1.57972 6.42017 1.19845 5.46039 1.19845C4.5006 1.19845 3.58012 1.57972 2.90145 2.25839C2.22278 2.93707 1.84151 3.85754 1.84151 4.81733C1.84151 5.77711 2.22278 6.69759 2.90145 7.37626C3.58012 8.05493 4.5006 8.43621 5.46039 8.43621V8.43621Z" fill="white"/>
</g>
<defs>
<clipPath id="clip0_1588_108">
<rect width="12.0635" height="12.0635" fill="white" transform="translate(0.634766 -0.00793457)"/>
</clipPath>
</defs>
</svg>
