<svg width="66" height="46" viewBox="0 0 66 46" fill="none" xmlns="http://www.w3.org/2000/svg">
<path d="M9.91998 19.6396C6.26373 19.6396 3.41998 16.7959 3.41998 13.1396C3.41998 9.58496 6.26373 6.63965 9.91998 6.63965C13.4747 6.63965 16.42 9.58496 16.42 13.1396C16.42 16.7959 13.4747 19.6396 9.91998 19.6396ZM55.42 19.6396C51.7637 19.6396 48.92 16.7959 48.92 13.1396C48.92 9.58496 51.7637 6.63965 55.42 6.63965C58.9747 6.63965 61.92 9.58496 61.92 13.1396C61.92 16.7959 58.9747 19.6396 55.42 19.6396ZM58.67 22.8896C62.2247 22.8896 65.17 25.835 65.17 29.3896V32.6396C65.17 34.4678 63.6465 35.8896 61.92 35.8896H55.2169C54.5059 31.1162 51.6622 27.0537 47.4981 24.8193C48.7169 23.7021 50.3419 22.8896 52.17 22.8896H58.67ZM32.67 22.8896C26.3731 22.8896 21.295 17.8115 21.295 11.5146C21.295 5.31934 26.3731 0.139648 32.67 0.139648C38.8653 0.139648 44.045 5.31934 44.045 11.5146C44.045 17.8115 38.8653 22.8896 32.67 22.8896ZM40.3887 26.1396C46.8887 26.1396 52.17 31.4209 52.17 37.9209V40.7646C52.17 43.5068 49.9356 45.6396 47.295 45.6396H18.045C15.3028 45.6396 13.17 43.5068 13.17 40.7646V37.9209C13.17 31.4209 18.3497 26.1396 24.8497 26.1396H25.6622C27.795 27.1553 30.1309 27.7646 32.67 27.7646C35.1075 27.7646 37.4434 27.1553 39.5762 26.1396H40.3887ZM17.7403 24.8193C13.5762 27.0537 10.7325 31.1162 10.0215 35.8896H3.41998C1.59186 35.8896 0.169983 34.4678 0.169983 32.6396V29.3896C0.169983 25.835 3.01373 22.8896 6.66998 22.8896H13.17C14.8965 22.8896 16.5215 23.7021 17.7403 24.8193Z" fill="#003486"/>
</svg>
