<?xml version="1.0" encoding="UTF-8"?>
<svg version="1.1" xmlns="http://www.w3.org/2000/svg" width="60" height="60">
<path d="M0 0 C2.31 0 4.62 0 7 0 C7.17015625 0.77085938 7.3403125 1.54171875 7.515625 2.3359375 C7.75796875 3.33882813 8.0003125 4.34171875 8.25 5.375 C8.59804687 6.87160156 8.59804687 6.87160156 8.953125 8.3984375 C9.75426757 11.07510512 9.75426757 11.07510512 11.81640625 12.265625 C14.87539035 13.29440677 17.96028663 14.17742648 21.07421875 15.0234375 C23 16 23 16 23.89453125 17.9765625 C23.94673828 18.97816406 23.94673828 18.97816406 24 20 C22 22 22 22 18.8125 22.3125 C14.47303743 21.95680635 11.92936567 20.78350849 8 19 C7.99589111 19.76554199 7.99178223 20.53108398 7.98754883 21.31982422 C7.9543494 24.8389636 7.88367436 28.35643184 7.8125 31.875 C7.80669922 33.07898437 7.80089844 34.28296875 7.79492188 35.5234375 C7.60364151 43.34467897 6.67289989 49.56204526 2 56 C-2.69830278 60.44925235 -7.1843702 60.74138948 -13.375 60.6875 C-14.22191406 60.68097412 -15.06882812 60.67444824 -15.94140625 60.66772461 C-20.67342031 60.48477174 -24.19015303 60.1303543 -28 57.0625 C-31.92508804 52.53635439 -33.92205802 47.62729961 -34.05078125 41.63671875 C-33.55371675 35.06442152 -31.59767371 30.24828275 -26.6875 25.75 C-22.24721996 22.20336123 -18.88867202 20.81722529 -13.125 21.375 C-11.578125 21.684375 -11.578125 21.684375 -10 22 C-10 23.65 -10 25.3 -10 27 C-11.6037331 27.64690922 -13.20800306 28.29248764 -14.8125 28.9375 C-15.70582031 29.29714844 -16.59914063 29.65679688 -17.51953125 30.02734375 C-19.3270909 30.73613486 -21.15807409 31.3860247 -23 32 C-25.52839266 36.25834553 -25.85358768 41.19117433 -25 46 C-23.28339762 49.06946373 -21.19169392 51.40415304 -18 53 C-13.81103254 53.42794952 -10.09255875 53.40377171 -6.125 51.9375 C-2.02494692 48.19921631 -0.86008032 43.62735628 -0.56762695 38.25805664 C-0.52662071 36.47569863 -0.50087669 34.69294142 -0.48828125 32.91015625 C-0.47033005 31.96563095 -0.45237885 31.02110565 -0.43388367 30.04795837 C-0.38001844 27.05285 -0.34596142 24.05789881 -0.3125 21.0625 C-0.27930593 19.0227647 -0.24481435 16.98305008 -0.20898438 14.94335938 C-0.12430565 9.96235343 -0.05738128 4.98139217 0 0 Z " fill="#FFFFFF" transform="translate(35,0)"/>
</svg>
