<svg width="71" height="56" viewBox="0 0 71 56" fill="none" xmlns="http://www.w3.org/2000/svg">
<path d="M24.5 28C16.7344 28 10.5 21.7656 10.5 14C10.5 6.34375 16.7344 0 24.5 0C32.1562 0 38.5 6.34375 38.5 14C38.5 21.7656 32.1562 28 24.5 28ZM34.2344 31.5C42.3281 31.5 49 38.1719 49 46.2656V50.75C49 53.7031 46.5938 56 43.75 56H5.25C2.29688 56 0 53.7031 0 50.75V46.2656C0 38.1719 6.5625 31.5 14.6562 31.5H16.5156C18.9219 32.7031 21.6562 33.25 24.5 33.25C27.3438 33.25 29.9688 32.7031 32.375 31.5H34.2344ZM69.5625 17.5C70.1094 18.0469 70.1094 18.8125 69.5625 19.3594L54.1406 34.6719C53.5938 35.2188 52.8281 35.2188 52.2812 34.6719L43.3125 25.7031C42.875 25.1562 42.875 24.2812 43.3125 23.8438L46.375 20.7812C46.9219 20.2344 47.7969 20.2344 48.2344 20.7812L53.2656 25.8125L64.75 14.4375C65.1875 13.8906 66.0625 13.8906 66.5 14.4375L69.5625 17.5Z" fill="#A81F23"/>
</svg>
