<svg width="107" height="75" viewBox="0 0 107 75" fill="none" xmlns="http://www.w3.org/2000/svg">
<path d="M16.1303 32.3269C10.1537 32.3269 5.50531 27.6785 5.50531 21.7019C5.50531 15.8914 10.1537 11.0769 16.1303 11.0769C21.9409 11.0769 26.7553 15.8914 26.7553 21.7019C26.7553 27.6785 21.9409 32.3269 16.1303 32.3269ZM90.5053 32.3269C84.5287 32.3269 79.8803 27.6785 79.8803 21.7019C79.8803 15.8914 84.5287 11.0769 90.5053 11.0769C96.3159 11.0769 101.13 15.8914 101.13 21.7019C101.13 27.6785 96.3159 32.3269 90.5053 32.3269ZM95.8178 37.6394C101.628 37.6394 106.443 42.4539 106.443 48.2644V53.5769C106.443 56.5652 103.953 58.8894 101.13 58.8894H90.1733C89.0112 51.0867 84.3627 44.446 77.5561 40.7937C79.5483 38.9675 82.2045 37.6394 85.1928 37.6394H95.8178ZM53.3178 37.6394C43.0248 37.6394 34.7241 29.3386 34.7241 19.0457C34.7241 8.9187 43.0248 0.451904 53.3178 0.451904C63.4448 0.451904 71.9116 8.9187 71.9116 19.0457C71.9116 29.3386 63.4448 37.6394 53.3178 37.6394ZM65.935 42.9519C76.56 42.9519 85.1928 51.5847 85.1928 62.2097V66.8582C85.1928 71.3406 81.5405 74.8269 77.2241 74.8269H29.4116C24.9291 74.8269 21.4428 71.3406 21.4428 66.8582V62.2097C21.4428 51.5847 29.9096 42.9519 40.5346 42.9519H41.8627C45.3491 44.6121 49.1674 45.6082 53.3178 45.6082C57.3022 45.6082 61.1205 44.6121 64.6069 42.9519H65.935ZM28.9135 40.7937C22.1069 44.446 17.4584 51.0867 16.2963 58.8894H5.50531C2.51703 58.8894 0.19281 56.5652 0.19281 53.5769V48.2644C0.19281 42.4539 4.84125 37.6394 10.8178 37.6394H21.4428C24.2651 37.6394 26.9213 38.9675 28.9135 40.7937Z" fill="#FFFFFF"/>
</svg>
