<svg width="53" height="46" viewBox="0 0 53 46" fill="none" xmlns="http://www.w3.org/2000/svg">
<path d="M26.17 0.139648C40.4903 0.139648 52.17 9.68652 52.17 21.2646C52.17 32.9443 40.4903 42.3896 26.17 42.3896C22.209 42.3896 18.5528 41.6787 15.2012 40.46C12.6622 42.4912 7.68561 45.6396 0.982483 45.6396H0.88092C0.47467 45.6396 0.169983 45.335 0.169983 44.9287C0.169983 44.624 0.169983 44.4209 0.373108 44.3193C0.373108 44.2178 4.63873 39.749 5.95905 34.5693C2.3028 31.0146 0.169983 26.3428 0.169983 21.2646C0.169983 9.68652 11.7481 0.139648 26.17 0.139648ZM28.6075 30.9131C31.6544 30.5068 33.9903 27.7646 33.584 24.5146C33.2794 22.1787 31.4512 20.3506 29.2169 19.6396L24.1387 18.2178C23.7325 18.1162 23.5294 17.8115 23.5294 17.4053C23.5294 16.8975 23.9356 16.4912 24.3419 16.4912H27.6934C28.0997 16.4912 28.4044 16.5928 28.709 16.7959C29.2169 16.999 29.8262 16.8975 30.1309 16.5928L31.959 14.7646C32.4669 14.2568 32.4669 13.3428 31.7559 12.9365C30.8419 12.2256 29.7247 11.9209 28.6075 11.7178V9.88965C28.6075 9.07715 27.795 8.26465 26.9825 8.26465H25.3575C24.4434 8.26465 23.7325 9.07715 23.7325 9.88965V11.7178C20.584 12.124 18.2481 14.8662 18.6544 18.1162C18.959 20.4521 20.7872 22.2803 23.0215 22.9912L28.0997 24.4131C28.5059 24.5146 28.709 24.8193 28.709 25.2256C28.709 25.7334 28.4044 26.1396 27.8965 26.1396H24.545C24.1387 26.1396 23.834 26.0381 23.5294 25.835C23.0215 25.6318 22.4122 25.7334 22.1075 26.0381L20.2794 27.8662C19.7715 28.374 19.8731 29.2881 20.4825 29.6943C21.3965 30.4053 22.5137 30.71 23.7325 30.9131V32.6396C23.7325 33.5537 24.4434 34.2646 25.3575 34.2646H26.9825C27.795 34.2646 28.6075 33.5537 28.6075 32.6396V30.9131Z" fill="#003486"/>
</svg>
