<svg width="304" height="71" viewBox="0 0 304 71" fill="none" xmlns="http://www.w3.org/2000/svg">
<g clip-path="url(#clip0_143_4004)">
<path d="M18.8665 23.4911C13.5936 23.5216 8.33091 23.5013 3.05806 23.5013C2.12337 23.5013 1.17852 23.5013 0 23.5013C0.975327 25.3808 1.81858 27.0572 2.73295 28.6929C2.86502 28.9367 3.373 29.0789 3.70827 29.0789C8.79826 29.0992 13.8984 29.0789 18.9884 29.1094C19.8215 29.1094 19.9942 28.7843 19.984 28.063C19.9536 26.9149 19.9332 25.7567 19.984 24.6087C20.0348 23.7451 19.73 23.481 18.8563 23.481L18.8665 23.4911Z" fill="white"/>
<path d="M19.9536 41.6973C19.9536 39.8686 19.9739 38.2735 19.9231 36.6784C19.9231 36.4651 19.5269 36.0993 19.3033 36.0993C14.8433 36.0689 10.3933 36.0688 5.75037 36.0688C6.71553 37.9179 7.5791 39.6146 8.50363 41.2909C8.61539 41.4839 9.00146 41.6262 9.26561 41.6262C11.3179 41.6668 13.3701 41.677 15.4224 41.6973C16.9361 41.6973 18.4499 41.6973 19.9536 41.6973Z" fill="white"/>
<path d="M19.3237 47.9456C16.7939 47.8948 14.2642 47.9151 11.5414 47.9151C12.5065 49.7642 13.4006 51.4812 14.3251 53.1778C14.4267 53.3607 14.7722 53.4826 15.016 53.4928C16.4383 53.5233 17.8708 53.5334 19.2932 53.4725C19.5269 53.4623 19.9231 53.0559 19.9333 52.8121C19.9942 51.4202 20.0044 50.0284 19.9333 48.6365C19.9231 48.3825 19.537 47.9456 19.3135 47.9456H19.3237Z" fill="white"/>
<path d="M62.746 23.4911C68.0188 23.5216 73.2815 23.5013 78.5544 23.5013C79.4891 23.5013 80.4339 23.5013 81.6124 23.5013C80.6371 25.3808 79.7939 27.0572 78.8795 28.6929C78.7474 28.9367 78.2394 29.0789 77.9042 29.0789C72.8142 29.0992 67.714 29.0789 62.6241 29.1094C61.791 29.1094 61.6183 28.7843 61.6284 28.063C61.6589 26.9149 61.6792 25.7567 61.6284 24.6087C61.5776 23.7451 61.8824 23.481 62.7561 23.481L62.746 23.4911Z" fill="white"/>
<path d="M61.6589 41.6973C61.6589 39.8686 61.6386 38.2735 61.6894 36.6784C61.6894 36.4651 62.0856 36.0993 62.3091 36.0993C66.7692 36.0689 71.2192 36.0688 75.8621 36.0688C74.8969 37.9179 74.0334 39.6146 73.1088 41.2909C72.9971 41.4839 72.611 41.6262 72.3469 41.6262C70.2946 41.6668 68.2424 41.677 66.1901 41.6973C64.6763 41.6973 63.1625 41.6973 61.6589 41.6973Z" fill="white"/>
<path d="M62.2888 47.9456C64.8186 47.8948 67.3483 47.9151 70.0711 47.9151C69.1059 49.7642 68.2119 51.4812 67.2874 53.1778C67.1858 53.3607 66.8403 53.4826 66.5965 53.4928C65.1742 53.5233 63.7417 53.5334 62.3193 53.4725C62.0856 53.4623 61.6894 53.0559 61.6792 52.8121C61.6183 51.4202 61.6081 50.0284 61.6792 48.6365C61.6894 48.3825 62.0755 47.9456 62.299 47.9456H62.2888Z" fill="white"/>
<path d="M109.348 22.9321L99.0058 53.8276H94.688L84.3455 22.9321H88.6227L96.9434 48.5751L105.264 22.9321H109.338H109.348Z" fill="white"/>
<path d="M119.833 54.3664C116.237 54.3664 113.453 53.3301 111.462 51.2473C109.47 49.1646 108.485 46.2082 108.485 42.378C108.485 38.5478 109.45 35.6015 111.37 33.3664C113.3 31.1312 115.81 30.0137 118.919 30.0137C120.321 30.0137 121.56 30.2169 122.637 30.6334C123.714 31.05 124.659 31.7002 125.462 32.5841C126.264 33.468 126.884 34.555 127.321 35.8352C127.758 37.1153 127.971 38.6799 127.971 40.5391V42.6523H112.345C112.345 45.3446 113.006 47.407 114.327 48.8395C115.647 50.272 117.466 50.973 119.803 50.973C120.636 50.973 121.459 50.8714 122.261 50.6784C123.064 50.4854 123.785 50.2314 124.435 49.9367C125.126 49.6218 125.705 49.3069 126.173 49.0122C126.64 48.7176 127.036 48.4331 127.341 48.169H127.565V52.4259C127.118 52.6087 126.569 52.8322 125.909 53.0964C125.248 53.3606 124.659 53.5739 124.131 53.7263C123.389 53.9295 122.718 54.092 122.119 54.2038C121.52 54.3156 120.768 54.3664 119.843 54.3664H119.833ZM124.273 39.6552C124.242 38.6087 124.12 37.6944 123.907 36.9324C123.694 36.1704 123.379 35.5304 122.972 35.0021C122.525 34.423 121.956 33.9759 121.266 33.6711C120.575 33.3664 119.711 33.214 118.695 33.214C117.679 33.214 116.826 33.3664 116.125 33.6813C115.414 33.9963 114.774 34.4433 114.194 35.0427C113.626 35.6523 113.199 36.3228 112.904 37.0645C112.61 37.8061 112.417 38.6697 112.335 39.645H124.273V39.6552Z" fill="white"/>
<path d="M138.628 54.2852C136.556 54.2852 134.94 53.6757 133.782 52.4667C132.624 51.2577 132.045 49.3477 132.045 46.7265V33.8847H129.485V30.6437H132.045V23.979H135.845V30.6437H142.835V33.8847H135.845V44.8977C135.845 46.0762 135.865 46.9805 135.906 47.6205C135.946 48.2606 136.099 48.8498 136.373 49.4086C136.596 49.8963 136.972 50.2519 137.48 50.4957C137.988 50.7395 138.689 50.8614 139.563 50.8614C140.183 50.8614 140.782 50.77 141.361 50.577C141.94 50.3941 142.357 50.2315 142.611 50.1096H142.835V53.6147C142.123 53.8179 141.392 53.9805 140.66 54.1024C139.929 54.2243 139.248 54.2751 138.628 54.2751V54.2852Z" fill="white"/>
<path d="M155.433 54.3664C151.836 54.3664 149.052 53.3301 147.061 51.2473C145.07 49.1646 144.084 46.2082 144.084 42.378C144.084 38.5478 145.049 35.6015 146.97 33.3664C148.9 31.1312 151.409 30.0137 154.518 30.0137C155.92 30.0137 157.16 30.2169 158.237 30.6334C159.314 31.05 160.258 31.7002 161.061 32.5841C161.864 33.468 162.483 34.555 162.92 35.8352C163.357 37.1153 163.57 38.6799 163.57 40.5391V42.6523H147.945C147.945 45.3446 148.605 47.407 149.926 48.8395C151.247 50.272 153.065 50.973 155.402 50.973C156.235 50.973 157.058 50.8714 157.861 50.6784C158.663 50.4854 159.385 50.2314 160.035 49.9367C160.726 49.6218 161.305 49.3069 161.772 49.0122C162.24 48.7176 162.636 48.4331 162.941 48.169H163.164V52.4259C162.717 52.6087 162.168 52.8322 161.508 53.0964C160.848 53.3606 160.258 53.5739 159.73 53.7263C158.988 53.9295 158.318 54.092 157.718 54.2038C157.119 54.3156 156.367 54.3664 155.443 54.3664H155.433ZM159.872 39.6552C159.842 38.6087 159.72 37.6944 159.507 36.9324C159.293 36.1704 158.978 35.5304 158.572 35.0021C158.125 34.423 157.556 33.9759 156.865 33.6711C156.174 33.3664 155.311 33.214 154.295 33.214C153.279 33.214 152.425 33.3664 151.724 33.6813C151.013 33.9963 150.373 34.4433 149.794 35.0427C149.225 35.6523 148.798 36.3228 148.504 37.0645C148.209 37.8061 148.016 38.6697 147.935 39.645H159.872V39.6552Z" fill="white"/>
<path d="M179.359 34.8396H179.155C178.871 34.7583 178.576 34.7075 178.261 34.6872C177.946 34.6669 177.56 34.6567 177.123 34.6567C176.097 34.6567 175.081 34.8802 174.075 35.3374C173.07 35.7946 172.105 36.4753 171.21 37.3693V53.828H167.411V30.6538H171.21V34.0979C172.602 32.8381 173.801 31.9542 174.837 31.4361C175.874 30.918 176.869 30.6538 177.835 30.6538C178.221 30.6538 178.515 30.664 178.718 30.6843C178.911 30.7046 179.135 30.7351 179.379 30.7757V34.8396H179.359Z" fill="white"/>
<path d="M194.202 51.359C193.897 51.5926 193.48 51.9178 192.962 52.3445C192.444 52.7712 191.946 53.1064 191.459 53.3503C190.788 53.7059 190.138 53.9903 189.508 54.1834C188.878 54.3764 188.004 54.478 186.877 54.478C185.952 54.478 185.068 54.2951 184.235 53.9395C183.402 53.5839 182.671 53.076 182.031 52.4257C181.421 51.7857 180.943 51.0034 180.578 50.0687C180.212 49.134 180.029 48.1485 180.029 47.1122C180.029 45.507 180.364 44.1456 181.015 43.0179C181.675 41.8902 182.721 40.9961 184.144 40.3256C185.414 39.7363 186.907 39.3198 188.624 39.0963C190.341 38.8728 192.2 38.7 194.202 38.5883V37.8365C194.202 36.9221 194.07 36.1906 193.795 35.6318C193.531 35.0731 193.145 34.6362 192.668 34.3314C192.18 34.0164 191.591 33.8031 190.89 33.7015C190.189 33.5999 189.467 33.5491 188.726 33.5491C187.852 33.5491 186.816 33.6812 185.637 33.9555C184.449 34.2298 183.27 34.6159 182.081 35.1239H181.858V31.1616C182.559 30.9584 183.565 30.7247 184.865 30.4809C186.165 30.2371 187.466 30.105 188.746 30.105C190.29 30.105 191.601 30.2269 192.668 30.4809C193.734 30.7349 194.689 31.1819 195.533 31.8321C196.356 32.4722 196.965 33.2951 197.372 34.3009C197.778 35.3067 197.981 36.5462 197.981 37.999V53.8481H194.202V51.3793V51.359ZM194.202 48.118V41.687C193.298 41.7683 192.16 41.88 190.778 42.0324C189.396 42.1746 188.279 42.3778 187.435 42.642C186.43 42.9569 185.586 43.4446 184.936 44.105C184.276 44.7654 183.951 45.6797 183.951 46.8582C183.951 48.1892 184.316 49.1848 185.038 49.8655C185.769 50.5462 186.826 50.8815 188.228 50.8815C189.427 50.8815 190.514 50.6173 191.479 50.0789C192.444 49.5506 193.359 48.8902 194.202 48.118Z" fill="white"/>
<path d="M221.044 53.8277H217.244V40.6303C217.244 39.5636 217.193 38.5679 217.091 37.6535C216.99 36.7392 216.797 35.9975 216.512 35.4387C216.208 34.8596 215.771 34.4228 215.222 34.1383C214.673 33.8538 213.911 33.7116 212.956 33.7116C212.001 33.7116 211.036 33.9656 210.041 34.4939C209.035 35.012 208.06 35.6826 207.105 36.5157V53.8175H203.305V30.6434H207.105V33.2138C208.232 32.1775 209.35 31.385 210.457 30.8263C211.565 30.2776 212.723 29.9932 213.952 29.9932C216.177 29.9932 217.914 30.745 219.164 32.2486C220.414 33.7522 221.044 35.9264 221.044 38.7711V53.8175V53.8277Z" fill="white"/>
<path d="M249.877 32.6855C249.877 34.1282 249.653 35.4896 249.206 36.79C248.759 38.0904 248.119 39.1775 247.286 40.0512C246.778 40.5897 246.209 41.0875 245.599 41.5447C244.99 42.0019 244.309 42.388 243.568 42.7029C242.826 43.0179 242.023 43.2718 241.15 43.4547C240.286 43.6376 239.311 43.729 238.234 43.729H234.271V53.8379H226.723V22.9424H238.396C240.134 22.9424 241.627 23.1049 242.887 23.43C244.147 23.7552 245.285 24.2733 246.311 24.9743C247.438 25.7464 248.312 26.7827 248.932 28.073C249.552 29.3633 249.856 30.9075 249.856 32.6855H249.877ZM242.125 32.8684C242.125 31.9946 241.922 31.2428 241.515 30.6129C241.109 29.983 240.621 29.5563 240.062 29.3125C239.351 28.9975 238.671 28.8147 238.01 28.7639C237.36 28.7131 236.476 28.6927 235.359 28.6927H234.292V37.9482H234.82C235.531 37.9482 236.202 37.9482 236.842 37.9279C237.472 37.9177 238.031 37.8669 238.498 37.7856C238.904 37.7145 239.331 37.5824 239.778 37.3792C240.225 37.1761 240.581 36.9525 240.814 36.7087C241.322 36.2007 241.668 35.6623 241.851 35.1136C242.033 34.565 242.125 33.8132 242.125 32.8684Z" fill="white"/>
<path d="M266.884 54.4273C262.373 54.4273 258.797 53.0252 256.145 50.2212C253.494 47.4171 252.163 43.4853 252.163 38.4055C252.163 33.3257 253.494 29.6072 256.145 26.6914C258.797 23.7756 262.393 22.3228 266.894 22.3228C268.093 22.3228 269.17 22.3939 270.125 22.5259C271.08 22.6682 271.994 22.8612 272.868 23.105C273.559 23.3082 274.3 23.5927 275.113 23.9585C275.916 24.314 276.576 24.629 277.074 24.8931V32.2589H276.312C275.946 31.9236 275.489 31.5274 274.941 31.0702C274.392 30.6029 273.762 30.1558 273.061 29.7088C272.36 29.2618 271.588 28.8859 270.745 28.5811C269.901 28.2661 269.028 28.1138 268.113 28.1138C267.026 28.1138 266.02 28.2865 265.116 28.6421C264.212 28.9976 263.338 29.6072 262.525 30.481C261.774 31.2734 261.154 32.33 260.676 33.6812C260.199 35.0223 259.955 36.6072 259.955 38.436C259.955 40.3561 260.209 41.9715 260.707 43.2821C261.205 44.5927 261.855 45.6493 262.668 46.4418C263.45 47.2139 264.324 47.7727 265.279 48.1181C266.234 48.4635 267.199 48.6363 268.154 48.6363C269.109 48.6363 270.105 48.4635 270.999 48.1283C271.893 47.793 272.665 47.4171 273.285 47.0005C273.955 46.5738 274.554 46.137 275.062 45.69C275.57 45.2429 276.017 44.8569 276.393 44.5114H277.084V51.7756C276.536 52.0397 275.896 52.3445 275.164 52.6798C274.433 53.0151 273.691 53.3097 272.919 53.5434C271.974 53.838 271.09 54.0513 270.277 54.2037C269.454 54.3561 268.327 54.4273 266.884 54.4273Z" fill="white"/>
<path d="M290.81 54.3867C288.504 54.3867 286.482 54.1632 284.745 53.706C282.997 53.2488 281.382 52.6799 279.888 52.0093V44.6639H280.579C282.083 45.9745 283.749 46.9905 285.567 47.6915C287.386 48.3925 289.144 48.7481 290.861 48.7481C291.287 48.7481 291.856 48.6973 292.568 48.6058C293.279 48.5043 293.848 48.3519 294.274 48.1487C294.803 47.915 295.239 47.5899 295.605 47.1632C295.971 46.7365 296.154 46.1879 296.154 45.497C296.154 44.7249 295.859 44.095 295.27 43.6073C294.681 43.1196 293.97 42.7742 293.147 42.5507C292.12 42.2764 291.033 42.0122 289.865 41.7582C288.697 41.5043 287.61 41.2096 286.604 40.8439C284.277 40.0006 282.601 38.8627 281.595 37.4404C280.589 36.018 280.081 34.2299 280.081 32.0863C280.081 29.1908 281.27 26.854 283.657 25.0659C286.045 23.2778 289.012 22.3838 292.588 22.3838C294.376 22.3838 296.154 22.5667 297.932 22.9426C299.71 23.3185 301.284 23.8163 302.687 24.4564V31.5072H302.016C300.898 30.5217 299.537 29.6987 297.932 29.018C296.327 28.3373 294.671 28.0021 292.974 28.0021C292.314 28.0021 291.724 28.0529 291.196 28.1443C290.668 28.2459 290.119 28.4288 289.54 28.7031C289.073 28.9266 288.666 29.2517 288.321 29.6886C287.975 30.1254 287.803 30.6131 287.803 31.1516C287.803 31.944 288.077 32.5638 288.615 33.0311C289.164 33.4984 290.21 33.915 291.775 34.2909C292.781 34.5246 293.756 34.7582 294.691 34.9716C295.626 35.1951 296.631 35.4999 297.688 35.886C299.771 36.6581 301.325 37.7045 302.341 39.005C303.357 40.3156 303.865 42.0427 303.865 44.1864C303.865 47.2546 302.687 49.7234 300.34 51.5928C297.993 53.4622 294.813 54.3969 290.82 54.3969L290.81 54.3867Z" fill="white"/>
<path d="M48.2482 19.3359C48.9797 20.0065 49.6197 20.7583 50.1683 21.5812H57.7474V56.0631L40.5776 67.7873L23.4281 56.0631V21.5812H29.6966C30.2453 20.7583 30.8955 20.0065 31.627 19.3359H21.1829V57.2518L40.5776 70.5101L59.9927 57.2518V19.3359H48.2482Z" fill="white"/>
<path d="M15.463 20.4536L6.96948 20.4942L40.7808 0.5L74.1857 20.4942L65.7024 20.4434L40.7706 5.52903L15.463 20.4536Z" fill="white"/>
<path d="M37.733 17.4668C33.2323 18.3913 29.8288 22.0894 29.3513 26.6003C29.1379 28.6627 29.5138 30.7658 30.479 32.5945C31.0378 33.6613 31.7997 34.6366 32.704 35.4392C33.6082 36.2418 34.6445 36.9936 35.7823 37.4305C35.9652 37.5016 36.1481 37.5524 36.3411 37.6032C36.3411 37.9283 36.3513 38.2941 36.3614 38.6801C36.3818 40.0618 36.3818 41.4537 36.4325 42.8354C36.4427 43.1199 36.5849 43.4348 36.7678 43.6584C37.3876 44.4508 38.0479 45.2026 38.688 45.9849C38.9826 46.3405 38.9318 46.6758 38.5559 47.1228C37.926 47.8644 37.2961 48.5959 36.6357 49.3681C37.2352 50.0589 37.8041 50.7396 38.4035 51.4102C38.9826 52.0604 39.0131 52.2636 38.4645 52.9443C37.9667 53.564 37.4384 54.1736 36.9101 54.7832C36.7069 55.0168 36.7272 55.1896 36.9405 55.4232C37.5501 56.0836 38.1292 56.7643 38.7083 57.445C39.0334 57.8209 39.0029 58.1867 38.6372 58.6235C38.0175 59.3449 37.3977 60.0763 36.7577 60.8383C37.418 61.5698 38.0581 62.281 38.7083 63.0125C39.135 62.5756 39.5109 62.1083 39.9783 61.7527C40.8418 61.0822 41.0349 60.2491 41.0247 59.1721C40.9434 52.5684 40.9333 45.9748 40.9028 39.371C41.0145 39.4929 41.1161 39.6047 41.2177 39.6961C41.7867 40.1939 41.9391 40.7933 41.9492 41.5553C41.9696 48.2505 42.0305 54.9457 42.0712 61.6409V62.2607C42.1321 62.2912 42.1728 62.3115 42.2236 62.3419C42.6503 61.8949 43.0363 61.4377 43.4833 61.0314C43.7983 60.7367 43.9101 60.4218 43.9101 59.9748C43.8491 52.6598 43.7881 45.3347 43.7373 37.9994C43.7373 37.6235 43.8085 37.4102 44.1945 37.2273C48.2482 35.1649 50.331 31.8427 50.1989 27.2708C50.016 20.9211 43.9812 16.1968 37.7533 17.4769L37.733 17.4668ZM42.0712 26.0212L42.8128 29.8107L39.3484 28.0938L35.9652 29.9631L36.5341 26.1431L33.6996 23.5016L37.5095 22.8615L39.1452 19.3565L40.9333 22.7904L44.7838 23.2578L42.0712 26.0212Z" fill="white"/>
</g>
<defs>
<clipPath id="clip0_143_4004">
<rect width="303.855" height="70" fill="white" transform="translate(0 0.5)"/>
</clipPath>
</defs>
</svg>
