<svg width="96" height="97" viewBox="0 0 96 97" fill="none" xmlns="http://www.w3.org/2000/svg">
<g clip-path="url(#clip0_916_305)">
<path d="M51 6.76001C44.8125 6.76001 38.9688 7.94751 33.4688 10.3225C28.0312 12.635 23.2656 15.8381 19.1719 19.9319C15.0781 24.0256 11.875 28.7913 9.5625 34.2288C7.1875 39.7288 6 45.5725 6 51.76C6 57.9475 7.1875 63.7913 9.5625 69.2913C11.875 74.7288 15.0781 79.4944 19.1719 83.5881C23.2656 87.6819 28.0312 90.885 33.4688 93.1975C38.9688 95.5725 44.8125 96.76 51 96.76C57.1875 96.76 63.0312 95.5725 68.5312 93.1975C73.9688 90.885 78.7344 87.6819 82.8281 83.5881C86.9219 79.4944 90.125 74.7288 92.4375 69.2913C94.8125 63.7913 96 57.9475 96 51.76C96 45.5725 94.8125 39.7288 92.4375 34.2288C90.125 28.7913 86.9219 24.0256 82.8281 19.9319C78.7344 15.8381 73.9688 12.635 68.5312 10.3225C63.0312 7.94751 57.1875 6.76001 51 6.76001ZM51 90.76C45.625 90.76 40.5625 89.7288 35.8125 87.6663C31.0625 85.6663 26.9219 82.9006 23.3906 79.3694C19.8594 75.8381 17.0938 71.6975 15.0938 66.9475C13.0312 62.1975 12 57.135 12 51.76C12 46.385 13.0312 41.3225 15.0938 36.5725C17.0938 31.8225 19.8594 27.6819 23.3906 24.1506C26.9219 20.6194 31.0625 17.8538 35.8125 15.8538C40.5625 13.7913 45.625 12.76 51 12.76C56.375 12.76 61.4375 13.7913 66.1875 15.8538C70.9375 17.8538 75.0781 20.6194 78.6094 24.1506C82.1406 27.6819 84.9062 31.8225 86.9062 36.5725C88.9688 41.3225 90 46.385 90 51.76C90 57.135 88.9688 62.1975 86.9062 66.9475C84.9062 71.6975 82.1406 75.8381 78.6094 79.3694C75.0781 82.9006 70.9375 85.6663 66.1875 87.6663C61.4375 89.7288 56.375 90.76 51 90.76ZM70.875 49.7913L47.7188 31.51C47.0938 30.9475 46.3281 30.6663 45.4219 30.6663C44.5156 30.6663 43.7188 30.9475 43.0312 31.51C42.7188 31.76 42.4688 32.0413 42.2812 32.3538C42.0938 32.6663 42 33.01 42 33.385V70.0413C42 70.4163 42.0938 70.76 42.2812 71.0725C42.4688 71.385 42.7188 71.6663 43.0312 71.9163C43.7188 72.4163 44.5156 72.6663 45.4219 72.6663C46.3281 72.6663 47.0938 72.4163 47.7188 71.9163L71.0625 53.5413C71.6875 53.0413 72 52.4319 72 51.7131C72 50.9944 71.6875 50.385 71.0625 49.885C71 49.8225 70.9688 49.7913 70.9688 49.7913C70.9688 49.7913 70.9375 49.7913 70.875 49.7913Z" fill="white"/>
</g>
<defs>
<clipPath id="clip0_916_305">
<rect width="96" height="96" fill="white" transform="matrix(1 0 0 -1 0 96.76)"/>
</clipPath>
</defs>
</svg>
