<svg width="60" height="86" viewBox="0 0 60 86" fill="none" xmlns="http://www.w3.org/2000/svg">
<path d="M30.6288 0.139404C44.5741 0.139404 59.6815 11.2625 59.6815 25.7058C59.6815 44.9636 38.9296 45.2957 38.9296 52.4343V53.2644C38.9296 55.5886 37.1034 57.2488 34.9452 57.2488H22.826C20.6678 57.2488 18.8417 55.5886 18.8417 53.2644V51.7703C18.8417 41.4773 26.6444 37.3269 32.621 34.0066C37.6014 31.1843 40.7557 29.3582 40.7557 25.5398C40.7557 20.5593 34.4471 17.405 29.3007 17.405C22.826 17.405 19.6718 20.3933 15.5214 25.5398C14.1932 27.2 11.703 27.532 10.0428 26.2039L2.90417 20.7253C1.078 19.5632 0.745972 17.073 1.90808 15.4128C8.71472 5.61792 17.3475 0.139404 30.6288 0.139404ZM28.9686 62.2292C35.2772 62.2292 40.4237 67.3757 40.4237 73.6843C40.4237 79.9929 35.2772 85.1394 28.9686 85.1394C22.494 85.1394 17.3475 79.9929 17.3475 73.6843C17.3475 67.3757 22.494 62.2292 28.9686 62.2292Z" fill="#7e1618"/>
</svg>
