<svg width="86" height="68" viewBox="0 0 86 68" fill="none" xmlns="http://www.w3.org/2000/svg">
<path d="M49.5234 67.9998V47.8048H35.9459V67.9179C35.4388 67.9507 35.0462 67.9943 34.6535 67.9943C28.4755 67.9998 22.2974 68.0025 16.1193 67.9943C13.4556 67.9916 12.2069 66.7253 12.2069 64.0727C12.2069 56.1147 12.2233 48.1568 12.1824 40.2016C12.1769 39.2355 12.4932 38.6297 13.2239 38.0293C22.8345 30.1287 32.4233 22.2008 42.0203 14.281C42.2248 14.1118 42.4566 13.9754 42.7428 13.7734C45.7065 16.2078 48.6537 18.6148 51.5901 21.0355C58.5261 26.7556 65.4648 32.4729 72.3627 38.2394C72.8289 38.6297 73.1997 39.4266 73.2051 40.0379C73.2597 47.9958 73.2488 55.951 73.2379 63.9089C73.2351 66.7144 71.9564 67.9889 69.17 67.9916C63.1283 67.9971 57.0865 67.9916 51.0448 67.9916H49.5234V67.9998Z" fill="white"/>
<path d="M42.6803 9.11779C38.9532 12.2235 35.2944 15.2718 31.6355 18.3256C23.2327 25.3366 14.8326 32.353 6.42703 39.3585C5.19196 40.3873 4.45583 40.3273 3.41433 39.1347C2.51734 38.1086 1.65852 37.0497 0.786063 36.0017C-0.329043 34.6618 -0.271788 33.8894 1.0478 32.7869C10.6693 24.7526 20.2909 16.7209 29.9124 8.68933C32.5952 6.44877 35.278 4.20548 37.9635 1.96766C41.1044 -0.649507 44.2997 -0.657694 47.4215 1.95401C51.2548 5.15793 55.0773 8.37003 58.9079 11.5794C59.0715 11.7158 59.2487 11.8359 59.6413 12.1279C59.6413 9.25151 59.6413 6.59887 59.6413 3.94622C59.6413 1.44641 60.9027 0.19741 63.4256 0.19923C65.923 0.19923 68.4204 0.188313 70.9178 0.201959C72.7391 0.212875 73.2298 0.715021 73.2325 2.57624C73.2407 9.16964 73.2489 15.763 73.2189 22.3592C73.2134 23.2106 73.4616 23.7455 74.1377 24.2941C77.4885 27.0095 80.7793 29.8013 84.0973 32.5604C85.7332 33.9222 85.8095 34.5526 84.4817 36.1627C83.672 37.1452 82.8595 38.1222 82.0362 39.091C80.9919 40.3218 80.1822 40.3709 78.9198 39.3148C67.0681 29.4192 55.2163 19.5237 43.3646 9.63085C43.1928 9.48621 43.0047 9.3634 42.6775 9.12052L42.6803 9.11779Z" fill="white"/>
</svg>
