<svg width="97" height="68" viewBox="0 0 97 68" fill="none" xmlns="http://www.w3.org/2000/svg">
<path d="M14.8937 28.7965C9.51871 28.7965 5.33812 24.6159 5.33812 19.2409C5.33812 14.0151 9.51871 9.68525 14.8937 9.68525C20.1195 9.68525 24.4494 14.0151 24.4494 19.2409C24.4494 24.6159 20.1195 28.7965 14.8937 28.7965ZM81.7832 28.7965C76.4081 28.7965 72.2275 24.6159 72.2275 19.2409C72.2275 14.0151 76.4081 9.68525 81.7832 9.68525C87.0089 9.68525 91.3388 14.0151 91.3388 19.2409C91.3388 24.6159 87.0089 28.7965 81.7832 28.7965ZM86.561 33.5743C91.7867 33.5743 96.1166 37.9042 96.1166 43.13V47.9078C96.1166 50.5953 93.877 52.6856 91.3388 52.6856H81.4845C80.4394 45.6682 76.2588 39.6959 70.1372 36.4111C71.9289 34.7688 74.3178 33.5743 77.0053 33.5743H86.561ZM48.3385 33.5743C39.0814 33.5743 31.6161 26.109 31.6161 16.852C31.6161 7.74426 39.0814 0.129618 48.3385 0.129618C57.4462 0.129618 65.0608 7.74426 65.0608 16.852C65.0608 26.109 57.4462 33.5743 48.3385 33.5743ZM59.6858 38.3521C69.2414 38.3521 77.0053 46.1161 77.0053 55.6717V59.8523C77.0053 63.8836 73.7206 67.019 69.8386 67.019H26.8383C22.807 67.019 19.6716 63.8836 19.6716 59.8523V55.6717C19.6716 46.1161 27.2862 38.3521 36.8418 38.3521H38.0363C41.1717 39.8452 44.6058 40.741 48.3385 40.741C51.9218 40.741 55.3559 39.8452 58.4913 38.3521H59.6858ZM26.3904 36.4111C20.2688 39.6959 16.0882 45.6682 15.0431 52.6856H5.33812C2.6506 52.6856 0.560303 50.5953 0.560303 47.9078V43.13C0.560303 37.9042 4.74089 33.5743 10.1159 33.5743H19.6716C22.2098 33.5743 24.5987 34.7688 26.3904 36.4111Z" fill="white"/>
</svg>
