<svg width="70" height="70" viewBox="0 0 70 70" fill="none" xmlns="http://www.w3.org/2000/svg">
<path d="M34.9912 0.0236232C54.2884 0.0236232 69.9234 15.6586 69.9234 34.9558C69.9234 54.253 54.2884 69.8879 34.9912 69.8879C15.694 69.8879 0.059082 54.253 0.059082 34.9558C0.059082 15.6586 15.694 0.0236232 34.9912 0.0236232ZM34.9912 13.5457C28.0893 13.5457 22.5959 19.18 22.5959 25.941C22.5959 32.8429 28.0893 38.3363 34.9912 38.3363C41.7523 38.3363 47.3865 32.8429 47.3865 25.941C47.3865 19.18 41.7523 13.5457 34.9912 13.5457ZM34.9912 62C43.1608 62 50.6262 58.3378 55.5561 52.4218C52.8799 47.4919 47.6682 43.9705 41.7523 43.9705C41.3297 43.9705 41.048 44.1114 40.6254 44.2522C38.9352 44.8156 36.9632 45.0974 34.9912 45.0974C32.8784 45.0974 31.0473 44.8156 29.2162 44.2522C28.7936 44.1114 28.5119 43.9705 28.2302 43.9705C22.1734 43.9705 16.9617 47.4919 14.2855 52.4218C19.2154 58.3378 26.6808 62 34.9912 62Z" fill="white"/>
</svg>
