<svg width="89" height="79" viewBox="0 0 89 79" fill="none" xmlns="http://www.w3.org/2000/svg">
<path d="M42.0003 22.8801C38.3494 21.8152 35.3069 19.077 34.8505 15.5782C34.242 10.7102 38.0451 6.60287 43.0652 5.99437V3.25614C43.0652 2.03915 44.1301 0.82216 45.6513 0.82216H48.2374C49.7587 0.82216 50.9756 2.03915 50.9756 3.25614V5.99437C52.8011 6.29862 54.6266 6.90711 56.1479 7.81986C56.6042 8.1241 57.0606 8.58047 57.0606 9.34109C57.0606 9.64534 56.9085 9.94959 56.7563 10.1017C56.6042 10.2538 56.6042 10.406 56.4521 10.5581L53.5617 13.2963C52.9533 13.7527 52.0405 13.9048 51.2799 13.6006C50.6714 13.2963 50.0629 13.1442 49.4544 13.1442H44.1301C43.3695 13.1442 42.761 13.7527 42.761 14.5133C42.761 15.1218 43.0652 15.5782 43.6737 15.7303L51.8884 17.86C55.6915 18.9249 58.5818 21.6631 59.0382 25.162C59.6467 30.0299 55.8436 34.1373 50.9756 34.7458V37.3319C50.9756 38.701 49.7587 39.7659 48.2374 39.7659H45.6513C44.1301 39.7659 42.9131 38.701 42.9131 37.3319V34.7458C41.0876 34.5936 39.2621 33.833 37.7409 32.9203C37.2845 32.616 36.8281 32.1597 36.8281 31.399C36.8281 31.0948 36.9803 30.7906 37.1324 30.6384C37.2845 30.4863 37.2845 30.3342 37.4366 30.1821L40.327 27.4438C40.9355 26.9875 41.8482 26.8353 42.761 27.1396C43.2173 27.4438 43.8258 27.596 44.4343 27.596H49.7587C50.5193 27.596 51.1278 26.9875 51.1278 26.2268C51.1278 25.6183 50.8235 25.162 50.215 25.0098L42.0003 22.8801ZM86.7247 50.8709C87.6375 51.6315 88.3981 53.0006 88.3981 54.3697C88.3981 56.0431 87.6375 57.4122 86.5726 58.1728L63.4498 76.5798C61.7764 77.9489 59.6467 78.7096 57.3648 78.7096H3.20876C1.83965 78.7096 0.77478 77.6447 0.77478 76.2756V61.6717C0.77478 60.4547 1.83965 59.2377 3.20876 59.2377H11.5756L18.5733 53.6091C21.7679 51.023 25.571 49.6539 29.9826 49.5018H54.3224C56.9085 49.5018 59.0382 51.7836 59.1903 54.3697C59.1903 54.3697 59.1903 54.3697 59.1903 54.5219C59.1903 54.674 59.0382 54.9782 59.0382 55.2825C58.734 57.7165 56.4521 59.2377 54.0181 59.2377H42.1525C40.7833 59.2377 39.7185 60.4547 39.7185 61.6717C39.7185 63.0408 40.7833 64.1057 42.1525 64.1057H60.1031C62.3849 64.1057 64.5147 63.3451 66.188 61.9759L80.1834 50.8709C82.161 49.3497 84.8993 49.1975 86.7247 50.8709Z" fill="white"/>
</svg>
