<svg width="94" height="76" viewBox="0 0 94 76" fill="none" xmlns="http://www.w3.org/2000/svg">
<path d="M71.3402 28.4425C73.2079 28.4425 74.7883 30.0229 74.7883 31.8906V38.7869C74.7883 40.7983 73.2079 42.2351 71.3402 42.2351H70.1908V51.4301C70.1908 54.0162 68.0357 56.0276 65.5933 56.0276H63.2945C63.2945 61.1998 59.128 65.2227 54.0995 65.2227H34.4164L19.6181 73.843C17.3193 75.1361 14.5896 74.4177 13.2965 72.1189L1.80272 52.2921C0.509665 50.137 1.22803 47.2636 3.52679 45.9705L15.0206 39.3616V32.609C15.0206 29.3045 16.601 26.2874 19.4744 24.707L28.8131 19.1038V36.4882C28.8131 42.2351 33.4107 46.8326 39.1576 46.8326C44.7608 46.8326 49.502 42.2351 49.502 36.4882V28.4425H71.3402ZM92.4601 23.1266C93.7531 25.2817 93.0348 28.1552 90.8797 29.4482L79.3859 36.0571V31.8906C79.3859 27.5805 75.6504 23.845 71.3402 23.845H44.9045V36.4882C44.9045 39.7926 42.3184 42.2351 39.1576 42.2351C35.8531 42.2351 33.4107 39.7926 33.4107 36.4882V18.3854C33.4107 16.805 34.129 15.3683 35.5658 14.5063L40.3069 11.4891C41.7437 10.6271 43.4677 10.0524 45.1918 10.0524H59.8464L74.7883 1.57574C76.9434 0.282688 79.6732 1.00105 80.9663 3.15614L92.4601 23.1266Z" fill="white"/>
</svg>
