<svg width="86" height="77" viewBox="0 0 86 77" fill="none" xmlns="http://www.w3.org/2000/svg">
<path d="M40.5903 38.123L24.6229 21.4232C19.9353 16.589 20.2283 8.53209 25.5019 3.99092C29.8966 0.0356957 36.6351 0.768144 40.7368 5.16283L42.4947 6.77422L44.1061 5.16283C48.2078 0.768144 54.9463 0.0356957 59.4875 3.99092C64.6146 8.53209 64.9076 16.589 60.2199 21.4232L44.2525 38.123C43.2271 39.1484 41.6157 39.1484 40.5903 38.123ZM83.0723 49.5492C85.2696 51.4535 85.1231 54.8228 82.9258 56.5807L60.6594 74.3059C59.048 75.7708 56.9971 76.3568 54.7998 76.3568H2.6495C1.33109 76.3568 0.305664 75.3314 0.305664 74.0129V59.9499C0.305664 58.778 1.33109 57.6061 2.6495 57.6061H10.7064L17.4449 52.186C20.5212 49.6957 24.4764 48.2308 28.4317 48.2308H51.87C54.6533 48.2308 56.8507 50.8676 56.4112 53.7974C56.1182 56.1412 53.9209 57.6061 51.577 57.6061H40.1508C38.8324 57.6061 37.807 58.778 37.807 59.9499C37.807 61.2684 38.8324 62.2938 40.1508 62.2938H57.4366C59.4875 62.2938 61.6848 61.7078 63.2962 60.2429L76.7732 49.5492C78.6776 48.0843 81.3144 47.9378 83.0723 49.5492Z" fill="white"/>
</svg>
