<svg width="17" height="17" viewBox="0 0 17 17" fill="none" xmlns="http://www.w3.org/2000/svg">
<path d="M15.5 8.45615C15.5 8.42178 15.5 8.38271 15.4984 8.3374C15.4969 8.21084 15.4938 8.06865 15.4906 7.91709C15.4781 7.48115 15.4563 7.04678 15.4219 6.6374C15.375 6.07334 15.3062 5.60303 15.2125 5.2499C15.1136 4.88139 14.9196 4.54529 14.6501 4.27521C14.3806 4.00513 14.0449 3.81052 13.6766 3.71084C13.2344 3.59209 12.3687 3.51865 11.15 3.47334C10.5703 3.45146 9.95 3.4374 9.32969 3.42959C9.1125 3.42646 8.91094 3.4249 8.72969 3.42334H8.27031C8.08906 3.4249 7.8875 3.42646 7.67031 3.42959C7.05 3.4374 6.42969 3.45146 5.85 3.47334C4.63125 3.52021 3.76406 3.59365 3.32344 3.71084C2.955 3.81028 2.61917 4.0048 2.3496 4.27492C2.08003 4.54504 1.88619 4.88126 1.7875 5.2499C1.69219 5.60303 1.625 6.07334 1.57812 6.6374C1.54375 7.04678 1.52187 7.48115 1.50937 7.91709C1.50469 8.06865 1.50312 8.21084 1.50156 8.3374C1.50156 8.38271 1.5 8.42178 1.5 8.45615V8.54365C1.5 8.57803 1.5 8.61709 1.50156 8.6624C1.50312 8.78897 1.50625 8.93115 1.50937 9.08271C1.52187 9.51865 1.54375 9.95303 1.57812 10.3624C1.625 10.9265 1.69375 11.3968 1.7875 11.7499C1.9875 12.4983 2.575 13.089 3.32344 13.289C3.76406 13.4077 4.63125 13.4812 5.85 13.5265C6.42969 13.5483 7.05 13.5624 7.67031 13.5702C7.8875 13.5733 8.08906 13.5749 8.27031 13.5765H8.72969C8.91094 13.5749 9.1125 13.5733 9.32969 13.5702C9.95 13.5624 10.5703 13.5483 11.15 13.5265C12.3687 13.4796 13.2359 13.4062 13.6766 13.289C14.425 13.089 15.0125 12.4999 15.2125 11.7499C15.3078 11.3968 15.375 10.9265 15.4219 10.3624C15.4563 9.95303 15.4781 9.51865 15.4906 9.08271C15.4953 8.93115 15.4969 8.78897 15.4984 8.6624C15.4984 8.61709 15.5 8.57803 15.5 8.54365V8.45615ZM14.375 8.5374C14.375 8.57022 14.375 8.60615 14.3734 8.64834C14.3719 8.77021 14.3688 8.90459 14.3656 9.0499C14.3547 9.46553 14.3328 9.88115 14.3 10.2671C14.2578 10.7702 14.1984 11.1827 14.125 11.4593C14.0281 11.8202 13.7437 12.1062 13.3844 12.2015C13.0562 12.289 12.2297 12.3593 11.1062 12.4015C10.5375 12.4233 9.925 12.4374 9.31406 12.4452C9.1 12.4483 8.90156 12.4499 8.72344 12.4499H8.27656L7.68594 12.4452C7.075 12.4374 6.46406 12.4233 5.89375 12.4015C4.77031 12.3577 3.94219 12.289 3.61562 12.2015C3.25625 12.1046 2.97187 11.8202 2.875 11.4593C2.80156 11.1827 2.74219 10.7702 2.7 10.2671C2.66719 9.88115 2.64688 9.46553 2.63438 9.0499C2.62969 8.90459 2.62813 8.76865 2.62656 8.64834C2.62656 8.60615 2.625 8.56865 2.625 8.5374V8.4624C2.625 8.42959 2.625 8.39365 2.62656 8.35146C2.62813 8.22959 2.63125 8.09521 2.63438 7.9499C2.64531 7.53428 2.66719 7.11865 2.7 6.73271C2.74219 6.22959 2.80156 5.81709 2.875 5.54053C2.97187 5.17959 3.25625 4.89365 3.61562 4.79834C3.94375 4.71084 4.77031 4.64053 5.89375 4.59834C6.4625 4.57646 7.075 4.5624 7.68594 4.55459C7.9 4.55146 8.09844 4.5499 8.27656 4.5499H8.72344L9.31406 4.55459C9.925 4.5624 10.5359 4.57646 11.1062 4.59834C12.2297 4.64209 13.0578 4.71084 13.3844 4.79834C13.7437 4.89521 14.0281 5.17959 14.125 5.54053C14.1984 5.81709 14.2578 6.22959 14.3 6.73271C14.3328 7.11865 14.3531 7.53428 14.3656 7.9499C14.3703 8.09521 14.3719 8.23115 14.3734 8.35146C14.3734 8.39365 14.375 8.43115 14.375 8.4624V8.5374ZM7.10938 10.5937L10.7344 8.48428L7.10938 6.40615V10.5937Z" fill="white"/>
</svg>
